<svg width="500" height="500" viewBox="0 0 500 500" fill="none" xmlns="http://www.w3.org/2000/svg">
<g clip-path="url(#clip0)">
<path d="M0 0H400C455.228 0 500 44.7715 500 100V500H100C44.7715 500 0 455.228 0 400V0Z" fill="url(#paint0_linear)"/>
<path d="M89 227.837C89 147.846 153.846 83 233.837 83C313.828 83 378.674 147.846 378.674 227.837V533H89V227.837Z" fill="white"/>
<path d="M410.814 219.929C410.814 202.177 396.423 187.786 378.671 187.786H369.993C357.034 187.786 346.528 198.291 346.528 211.25C346.528 224.209 357.034 234.714 369.993 234.714H410.814V219.929Z" fill="black"/>
<path fill-rule="evenodd" clip-rule="evenodd" d="M346.529 500.857V227.643C346.529 165.511 296.161 115.143 234.029 115.143C171.897 115.143 121.529 165.511 121.529 227.643V500.857H346.529ZM234.029 83C154.145 83 89.3857 147.759 89.3857 227.643V533H378.671V227.643C378.671 147.759 313.913 83 234.029 83Z" fill="black"/>
<path fill-rule="evenodd" clip-rule="evenodd" d="M233.643 83C153.759 83 89 147.759 89 227.643V533H233.643V83ZM134.257 372.286C134.257 342.107 158.721 317.643 188.9 317.643V372.286C188.9 402.464 164.435 426.929 134.257 426.929V372.286Z" fill="black"/>
<path d="M296.948 205.304C292.291 205.304 288.511 201.524 288.511 196.866C288.511 194.177 289.771 191.781 291.739 190.24C289.028 189.081 286.036 188.429 282.886 188.429C270.454 188.429 260.386 198.497 260.386 210.929C260.386 223.36 270.454 233.429 282.886 233.429C295.317 233.429 305.386 223.36 305.386 210.929C305.386 207.79 304.733 204.797 303.574 202.075C302.033 204.032 299.637 205.304 296.948 205.304Z" fill="black"/>
</g>
<defs>
<linearGradient id="paint0_linear" x1="0" y1="250" x2="500" y2="250" gradientUnits="userSpaceOnUse">
<stop stop-color="#C621E5"/>
<stop offset="1" stop-color="#7D7CF9"/>
</linearGradient>
<clipPath id="clip0">
<path d="M0 0H400C455.228 0 500 44.7715 500 100V500H100C44.7715 500 0 455.228 0 400V0Z" fill="white"/>
</clipPath>
</defs>
</svg>
